<svg width="60" height="60" viewBox="0 0 60 60" xmlns="http://www.w3.org/2000/svg"><g fill="#007AF5" fill-rule="evenodd"><path d="M34.488 3c-3.428 0-6.792 1.208-9.719 3.479l-.392.313a18.663 18.663 0 0 0-3.69 4.093l-.304.473-.113-.047a9.526 9.526 0 0 0-3.552-.681c-2.599 0-5.08 1.242-6.976 3.464l-.243.293a12.133 12.133 0 0 0-2.123 4.046l-.071.247-.27.128a12.535 12.535 0 0 0-4.612 3.904A12.906 12.906 0 0 0 0 30.292C.007 37.296 5.507 43 12.288 43h1v-.027l35.592.014c6.14 0 11.12-5.168 11.12-11.501l-.004-.298c-.133-5.336-3.857-9.888-8.825-11.006l-.219-.047v-.087c0-4.541-1.707-8.821-4.806-12.043C43.037 4.778 38.895 3 34.488 3Zm0 2c3.86 0 7.484 1.556 10.217 4.392 2.738 2.847 4.248 6.63 4.248 10.656l-.005.415-.014.485-.034.924.918.106C54.414 22.51 58 26.631 58 31.486c0 5.245-4.1 9.5-9.12 9.5l-37.314-.014-.105-.006c-5.277-.44-9.455-5.05-9.461-10.674a10.9 10.9 0 0 1 2.047-6.412 10.494 10.494 0 0 1 4.484-3.554l.476-.196.118-.501a10.116 10.116 0 0 1 2.137-4.235c1.532-1.795 3.468-2.764 5.456-2.764 1.267 0 2.487.308 3.59.904l.873.471.478-.868a16.636 16.636 0 0 1 4.336-5.078C28.58 6.054 31.515 5 34.488 5Z" fill-rule="nonzero"/><path d="m17.826 30 .78-2.148h3.588l.78 2.148h1.5l-3.276-8.568h-1.596L16.326 30h1.5Zm3.948-3.3h-2.748l1.356-3.756h.048l1.344 3.756Zm4.944 3.3v-3.492h2.22c.48 0 .852.096 1.104.312.24.204.384.54.432 1.008l.108 1.056c.048.48.168.852.372 1.116h1.524c-.288-.312-.468-.732-.516-1.26l-.144-1.38c-.096-.84-.516-1.332-1.26-1.5v-.024c.456-.12.828-.372 1.092-.756.24-.348.36-.744.36-1.188 0-.816-.276-1.44-.804-1.872-.504-.396-1.2-.588-2.076-.588h-3.816V30h1.404Zm2.22-4.692h-2.22v-2.676h2.22c.576 0 .996.096 1.26.312.264.204.396.54.396 1.008 0 .432-.132.768-.396 1.008-.288.228-.708.348-1.26.348ZM35.082 30v-5.904h.048L37.65 30h1.212l2.52-5.904h.048V30h1.404v-8.568H41.19l-2.904 6.72h-.048l-2.916-6.72h-1.644V30h1.404ZM55 46a1 1 0 0 1 1 1v8a1 1 0 0 1-1 1H5a1 1 0 0 1-1-1v-8a1 1 0 0 1 1-1h50Zm-1 2H6v6h48v-6Z" fill-rule="nonzero"/><path d="M14 50h36v2H14z"/><circle cx="11" cy="51" r="1"/></g></svg>