<svg width="60" height="60" viewBox="0 0 60 60" xmlns="http://www.w3.org/2000/svg"><g fill="#007AF5" fill-rule="evenodd"><path d="M34.488 3c-3.428 0-6.792 1.208-9.719 3.479l-.392.313a18.663 18.663 0 0 0-3.69 4.093l-.304.473-.113-.047a9.526 9.526 0 0 0-3.552-.681c-2.599 0-5.08 1.242-6.976 3.464l-.243.293a12.133 12.133 0 0 0-2.123 4.046l-.071.247-.27.128a12.535 12.535 0 0 0-4.612 3.904A12.906 12.906 0 0 0 0 30.292C.007 37.296 5.507 43 12.288 43h1v-.027l35.592.014c6.14 0 11.12-5.168 11.12-11.501l-.004-.298c-.133-5.336-3.857-9.888-8.825-11.006l-.219-.047v-.087c0-4.541-1.707-8.821-4.806-12.043C43.037 4.778 38.895 3 34.488 3Zm0 2c3.86 0 7.484 1.556 10.217 4.392 2.738 2.847 4.248 6.63 4.248 10.656l-.005.415-.014.485-.034.924.918.106C54.414 22.51 58 26.631 58 31.486c0 5.245-4.1 9.5-9.12 9.5l-37.314-.014-.105-.006c-5.277-.44-9.455-5.05-9.461-10.674a10.9 10.9 0 0 1 2.047-6.412 10.494 10.494 0 0 1 4.484-3.554l.476-.196.118-.501a10.116 10.116 0 0 1 2.137-4.235c1.532-1.795 3.468-2.764 5.456-2.764 1.267 0 2.487.308 3.59.904l.873.471.478-.868a16.636 16.636 0 0 1 4.336-5.078C28.58 6.054 31.515 5 34.488 5Z" fill-rule="nonzero"/><path d="M13.554 30v-3.792h4.344V30h1.404v-8.568h-1.404v3.576h-4.344v-3.576H12.15V30h1.404Zm9.48 2.376 3.36-8.58h-1.488l-1.572 4.416-1.644-4.416h-1.488l2.46 6.06-1.092 2.52h1.464Zm7.284-2.208c.912 0 1.632-.324 2.16-.972.48-.6.72-1.38.72-2.328 0-.912-.24-1.668-.708-2.268-.516-.648-1.212-.972-2.1-.972-.72 0-1.344.336-1.848 1.02v-3.384h-1.368V30h1.272v-.66c.432.552 1.056.828 1.872.828Zm-.204-1.104c-.54 0-.948-.216-1.236-.636-.264-.384-.384-.888-.384-1.488v-.096c0-.66.156-1.188.48-1.572.288-.36.648-.54 1.092-.54.612 0 1.068.204 1.356.612.24.348.372.852.372 1.524s-.12 1.188-.348 1.548c-.288.432-.732.648-1.332.648Zm5.64.936v-3.288c0-.528.156-.948.492-1.272.288-.288.612-.42.972-.42.288 0 .576.036.888.132v-1.368c-.216-.108-.48-.156-.78-.156-.384 0-.708.108-.984.336-.228.168-.42.408-.588.72v-.888h-1.356V30h1.356Zm4.056-6.924c.264 0 .48-.084.66-.252a.878.878 0 0 0 .276-.66.886.886 0 0 0-.264-.648.954.954 0 0 0-.672-.252.925.925 0 0 0-.66.252.842.842 0 0 0-.264.648c0 .264.084.48.264.66.18.168.396.252.66.252ZM40.494 30v-6.204h-1.368V30h1.368Zm4.332.168c.816 0 1.44-.276 1.872-.828V30h1.272v-8.736h-1.368v3.384c-.516-.684-1.128-1.02-1.848-1.02-.888 0-1.596.324-2.1.972-.48.6-.708 1.356-.708 2.268 0 .948.24 1.728.72 2.328.516.648 1.236.972 2.16.972Zm.204-1.104c-.612 0-1.056-.216-1.332-.648-.24-.36-.348-.876-.348-1.548s.12-1.176.372-1.524c.288-.408.732-.612 1.356-.612.432 0 .804.18 1.092.54.312.384.48.912.48 1.572v.096c0 .6-.132 1.104-.384 1.488-.288.42-.708.636-1.236.636ZM55 46a1 1 0 0 1 1 1v8a1 1 0 0 1-1 1H5a1 1 0 0 1-1-1v-8a1 1 0 0 1 1-1h50Zm-1 2H6v6h48v-6Z" fill-rule="nonzero"/><path d="M14 50h36v2H14z"/><circle cx="11" cy="51" r="1"/></g></svg>