<svg width="60" height="60" viewBox="0 0 60 60" xmlns="http://www.w3.org/2000/svg"><g fill="#007AF5" fill-rule="evenodd"><path d="M34.488 3c-3.428 0-6.792 1.208-9.719 3.479l-.392.313a18.663 18.663 0 0 0-3.69 4.093l-.304.473-.113-.047a9.526 9.526 0 0 0-3.552-.681c-2.599 0-5.08 1.242-6.976 3.464l-.243.293a12.133 12.133 0 0 0-2.123 4.046l-.071.247-.27.128a12.535 12.535 0 0 0-4.612 3.904A12.906 12.906 0 0 0 0 30.292C.007 37.296 5.507 43 12.288 43h1v-.027l35.592.014c6.14 0 11.12-5.168 11.12-11.501l-.004-.298c-.133-5.336-3.857-9.888-8.825-11.006l-.219-.047v-.087c0-4.541-1.707-8.821-4.806-12.043C43.037 4.778 38.895 3 34.488 3Zm0 2c3.86 0 7.484 1.556 10.217 4.392 2.738 2.847 4.248 6.63 4.248 10.656l-.005.415-.014.485-.034.924.918.106C54.414 22.51 58 26.631 58 31.486c0 5.245-4.1 9.5-9.12 9.5l-37.314-.014-.105-.006c-5.277-.44-9.455-5.05-9.461-10.674a10.9 10.9 0 0 1 2.047-6.412 10.494 10.494 0 0 1 4.484-3.554l.476-.196.118-.501a10.116 10.116 0 0 1 2.137-4.235c1.532-1.795 3.468-2.764 5.456-2.764 1.267 0 2.487.308 3.59.904l.873.471.478-.868a16.636 16.636 0 0 1 4.336-5.078C28.58 6.054 31.515 5 34.488 5Z" fill-rule="nonzero"/><path d="m18.668 30 1.56-2.292L21.776 30h1.608l-2.412-3.3 2.136-2.904h-1.596l-1.284 1.896-1.296-1.896h-1.596l2.136 2.904L17.06 30h1.608Zm8.376.168c1.02 0 1.812-.24 2.376-.708.552-.48.84-1.092.84-1.86a2.2 2.2 0 0 0-.492-1.404c-.288-.372-.636-.612-1.032-.72v-.024c.42-.168.732-.42.948-.732.192-.3.288-.672.288-1.104 0-.648-.252-1.188-.732-1.62-.552-.492-1.284-.732-2.196-.732-.924 0-1.656.24-2.196.732a2.061 2.061 0 0 0-.732 1.62c0 .432.096.804.288 1.104.204.312.516.564.948.732v.024c-.408.108-.744.348-1.032.72a2.135 2.135 0 0 0-.492 1.404c0 .768.276 1.38.84 1.86.552.468 1.344.708 2.376.708Zm0-5.148c-.6 0-1.02-.144-1.284-.42-.216-.228-.324-.54-.324-.936 0-.348.132-.636.396-.876.3-.276.708-.408 1.212-.408s.9.132 1.212.408c.264.24.396.528.396.876 0 .396-.108.708-.324.936-.264.276-.696.42-1.284.42Zm0 4.02c-.588 0-1.032-.132-1.344-.396-.324-.264-.48-.612-.48-1.044 0-.456.144-.828.456-1.104.312-.288.768-.432 1.368-.432.6 0 1.056.144 1.38.444.288.264.444.636.444 1.092 0 .432-.156.768-.456 1.032-.336.264-.792.408-1.368.408Zm7.308 1.128c.852 0 1.572-.288 2.148-.84.576-.552.876-1.26.876-2.124 0-.84-.252-1.536-.756-2.076s-1.176-.804-2.016-.804c-.432 0-.816.072-1.152.24-.36.168-.66.42-.9.78h-.06v-.108c0-.792.156-1.452.492-1.98.336-.564.792-.84 1.368-.84.816 0 1.32.396 1.488 1.188h1.368c-.216-1.56-1.164-2.34-2.844-2.34-.996 0-1.788.432-2.364 1.296-.588.864-.876 1.992-.876 3.396 0 1.308.264 2.328.816 3.072.552.756 1.356 1.14 2.412 1.14Zm-.048-1.164c-.492 0-.888-.156-1.2-.468-.312-.312-.468-.744-.468-1.284 0-.552.144-.996.444-1.308.288-.324.696-.48 1.224-.48.516 0 .924.156 1.236.48.288.312.444.732.444 1.26s-.156.96-.468 1.296c-.312.336-.708.504-1.212.504ZM55 46a1 1 0 0 1 1 1v8a1 1 0 0 1-1 1H5a1 1 0 0 1-1-1v-8a1 1 0 0 1 1-1h50Zm-1 2H6v6h48v-6Z" fill-rule="nonzero"/><path d="M14 50h36v2H14z"/><circle cx="11" cy="51" r="1"/></g></svg>